<?xml version="1.0" standalone="no"?>
<!DOCTYPE svg PUBLIC "-//W3C//DTD SVG 20010904//EN"
 "http://www.w3.org/TR/2001/REC-SVG-20010904/DTD/svg10.dtd">
<svg version="1.0" xmlns="http://www.w3.org/2000/svg"
 width="512.000000pt" height="512.000000pt" viewBox="0 0 512.000000 512.000000"
 preserveAspectRatio="xMidYMid meet">

<g transform="translate(0.000000,512.000000) scale(0.100000,-0.100000)"
fill="#000000" stroke="none">
<path d="M1612 3376 c-103 -42 -221 -113 -320 -193 -108 -87 -968 -953 -1030
-1038 -108 -147 -191 -339 -234 -539 -30 -142 -30 -370 1 -513 60 -285 181
-507 390 -713 186 -184 404 -298 681 -356 117 -25 371 -25 493 -1 185 37 371
115 527 220 106 72 1027 989 1112 1107 76 106 160 278 193 395 45 158 58 263
52 440 -6 177 -33 312 -96 470 -126 316 -408 595 -735 726 l-79 33 -39 -45
c-47 -54 -102 -163 -123 -244 -18 -69 -20 -192 -4 -267 19 -91 81 -206 158
-293 215 -241 236 -555 54 -790 -21 -28 -236 -246 -478 -486 -416 -412 -444
-437 -517 -473 -197 -96 -421 -82 -600 38 -167 111 -257 270 -266 472 -5 120
11 194 65 304 34 70 64 103 460 500 l423 426 -25 98 c-54 213 -54 447 -1 657
13 52 23 95 22 96 -1 1 -39 -13 -84 -31z"/>
</g>
</svg>
